# xmcd CD database file
#
# Track frame offsets:
#	150
#	20070
#	38590
#	58530
#
# Disc length: 1041 seconds
#
# Revision: 1
# Processed by: cddbd v1.5.2PL0 Copyright (c) Steve Scherf et al.
# Submitted via: CDex 1.70beta2
#
DISCID=2a040f04
DTITLE=モーニング娘。 - 抱いてHOLD ON ME!
DYEAR=1998
DGENRE=JPop
TTITLE0=抱いてHOLD ON ME!
TTITLE1=例えば
TTITLE2=抱いてHOLD ON ME! (Instrumental)
TTITLE3=抱いてHOLD ON ME! (モーニング刑事Version)
EXTD=YEAR: 1998
EXTT0=
EXTT1=
EXTT2=
EXTT3=
PLAYORDER=
